<mxfile host="app.diagrams.net" modified="2023-05-30T14:03:50.337Z" agent="Mozilla/5.0 (Windows NT 10.0; Win64; x64) AppleWebKit/537.36 (KHTML, like Gecko) Chrome/112.0.0.0 Safari/537.36" etag="C5l3TYfwVRI1fzEsrQ6b" version="21.3.5" type="device">
  <diagram name="Page-1" id="ysEDhYn6W96OPs6aZYAN">
    <mxGraphModel dx="1050" dy="523" grid="1" gridSize="10" guides="1" tooltips="1" connect="1" arrows="1" fold="1" page="1" pageScale="1" pageWidth="850" pageHeight="1100" math="0" shadow="0">
      <root>
        <mxCell id="0" />
        <mxCell id="1" parent="0" />
        <mxCell id="_dxwfGi7OuIQV2-Ad4eb-3" value="" style="edgeStyle=orthogonalEdgeStyle;rounded=0;orthogonalLoop=1;jettySize=auto;html=1;" edge="1" parent="1" source="_dxwfGi7OuIQV2-Ad4eb-1" target="_dxwfGi7OuIQV2-Ad4eb-2">
          <mxGeometry relative="1" as="geometry" />
        </mxCell>
        <mxCell id="_dxwfGi7OuIQV2-Ad4eb-1" value="&lt;font style=&quot;font-size: 23px;&quot;&gt;&lt;b&gt;Authors&lt;/b&gt;&lt;/font&gt;" style="shape=ext;double=1;whiteSpace=wrap;html=1;aspect=fixed;" vertex="1" parent="1">
          <mxGeometry x="50" y="30" width="130" height="130" as="geometry" />
        </mxCell>
        <mxCell id="_dxwfGi7OuIQV2-Ad4eb-2" value="&lt;font style=&quot;font-size: 20px;&quot;&gt;&lt;b&gt;Books&lt;/b&gt;&lt;/font&gt;" style="shape=ext;double=1;whiteSpace=wrap;html=1;aspect=fixed;" vertex="1" parent="1">
          <mxGeometry x="580" y="30" width="130" height="130" as="geometry" />
        </mxCell>
        <mxCell id="_dxwfGi7OuIQV2-Ad4eb-4" value="&lt;font style=&quot;font-size: 20px;&quot;&gt;1&lt;/font&gt;" style="label;whiteSpace=wrap;html=1;image=img/clipart/Gear_128x128.png" vertex="1" parent="1">
          <mxGeometry x="190" y="40" width="90" height="50" as="geometry" />
        </mxCell>
        <mxCell id="_dxwfGi7OuIQV2-Ad4eb-5" value="&lt;font style=&quot;font-size: 31px;&quot;&gt;∞&lt;/font&gt;" style="label;whiteSpace=wrap;html=1;image=img/clipart/Gear_128x128.png" vertex="1" parent="1">
          <mxGeometry x="480" y="40" width="90" height="50" as="geometry" />
        </mxCell>
        <mxCell id="_dxwfGi7OuIQV2-Ad4eb-99" value="&lt;span style=&quot;font-size: 23px;&quot;&gt;&lt;b&gt;Readers&lt;/b&gt;&lt;/span&gt;" style="shape=ext;double=1;whiteSpace=wrap;html=1;aspect=fixed;" vertex="1" parent="1">
          <mxGeometry x="50" y="270" width="130" height="130" as="geometry" />
        </mxCell>
        <mxCell id="_dxwfGi7OuIQV2-Ad4eb-100" value="&lt;span style=&quot;font-size: 23px;&quot;&gt;&lt;b&gt;BookTransactions&lt;br&gt;&lt;br&gt;&lt;/b&gt;&lt;/span&gt;" style="shape=ext;double=1;whiteSpace=wrap;html=1;aspect=fixed;" vertex="1" parent="1">
          <mxGeometry x="400" y="260" width="220" height="220" as="geometry" />
        </mxCell>
        <mxCell id="_dxwfGi7OuIQV2-Ad4eb-101" value="" style="edgeStyle=orthogonalEdgeStyle;rounded=0;orthogonalLoop=1;jettySize=auto;html=1;entryX=0;entryY=0.5;entryDx=0;entryDy=0;exitX=1.003;exitY=0.417;exitDx=0;exitDy=0;exitPerimeter=0;" edge="1" parent="1" source="_dxwfGi7OuIQV2-Ad4eb-99" target="_dxwfGi7OuIQV2-Ad4eb-100">
          <mxGeometry relative="1" as="geometry">
            <mxPoint x="180" y="244.5" as="sourcePoint" />
            <mxPoint x="580" y="244.5" as="targetPoint" />
            <Array as="points">
              <mxPoint x="180" y="330" />
              <mxPoint x="291" y="330" />
              <mxPoint x="291" y="370" />
            </Array>
          </mxGeometry>
        </mxCell>
        <mxCell id="_dxwfGi7OuIQV2-Ad4eb-102" value="&lt;font style=&quot;font-size: 20px;&quot;&gt;1&lt;/font&gt;" style="label;whiteSpace=wrap;html=1;image=img/clipart/Gear_128x128.png" vertex="1" parent="1">
          <mxGeometry x="190" y="270" width="90" height="50" as="geometry" />
        </mxCell>
        <mxCell id="_dxwfGi7OuIQV2-Ad4eb-103" value="&lt;font style=&quot;font-size: 31px;&quot;&gt;∞&lt;/font&gt;" style="label;whiteSpace=wrap;html=1;image=img/clipart/Gear_128x128.png" vertex="1" parent="1">
          <mxGeometry x="300" y="310" width="90" height="50" as="geometry" />
        </mxCell>
        <mxCell id="_dxwfGi7OuIQV2-Ad4eb-104" value="" style="edgeStyle=orthogonalEdgeStyle;rounded=0;orthogonalLoop=1;jettySize=auto;html=1;entryX=1;entryY=0.5;entryDx=0;entryDy=0;" edge="1" parent="1" target="_dxwfGi7OuIQV2-Ad4eb-100">
          <mxGeometry relative="1" as="geometry">
            <mxPoint x="610" y="159" as="sourcePoint" />
            <mxPoint x="1010" y="159" as="targetPoint" />
            <Array as="points">
              <mxPoint x="611" y="159" />
              <mxPoint x="611" y="240" />
              <mxPoint x="730" y="240" />
              <mxPoint x="730" y="370" />
            </Array>
          </mxGeometry>
        </mxCell>
        <mxCell id="_dxwfGi7OuIQV2-Ad4eb-105" value="&lt;font style=&quot;font-size: 20px;&quot;&gt;1&lt;/font&gt;" style="label;whiteSpace=wrap;html=1;image=img/clipart/Gear_128x128.png" vertex="1" parent="1">
          <mxGeometry x="620" y="170" width="90" height="50" as="geometry" />
        </mxCell>
        <mxCell id="_dxwfGi7OuIQV2-Ad4eb-106" value="&lt;font style=&quot;font-size: 31px;&quot;&gt;∞&lt;/font&gt;" style="label;whiteSpace=wrap;html=1;image=img/clipart/Gear_128x128.png" vertex="1" parent="1">
          <mxGeometry x="630" y="310" width="90" height="50" as="geometry" />
        </mxCell>
      </root>
    </mxGraphModel>
  </diagram>
</mxfile>
